<svg xmlns="http://www.w3.org/2000/svg" xmlns:xlink="http://www.w3.org/1999/xlink" viewBox="0 0 2997.2918 527.4376"><defs><style>.cls-1{fill:#fff;}.cls-2{fill:url(#linear-gradient);}.cls-3{fill:url(#linear-gradient-2);}.cls-4{fill:url(#linear-gradient-3);}</style><linearGradient id="linear-gradient" x1="1602.3366" y1="72.2687" x2="1592.3564" y2="411.5969" gradientUnits="userSpaceOnUse"><stop offset="0" stop-color="#33effa"/><stop offset="1" stop-color="#258ffb"/></linearGradient><linearGradient id="linear-gradient-2" x1="0" y1="347.3627" x2="445.619" y2="347.3627" xlink:href="#linear-gradient"/><linearGradient id="linear-gradient-3" x1="494.0478" y1="18.0821" x2="311.9261" y2="368.0014" xlink:href="#linear-gradient"/></defs><g id="Layer_2" data-name="Layer 2"><g id="Layer_1-2" data-name="Layer 1"><path class="cls-1" d="M876.4555,75.5092H744.78L560.7907,506.8308H692.4665L718.4654,437.92l35.2957-93.5429,53.1536-140.8934,51.4465,140.8934,34.14,93.5429L917.66,506.8308h136.5867ZM858.3612,344.3767l34.14,93.5429h35.0068V344.3767ZM678.3115,437.92h40.1539l35.2957-93.5429h-75.45Z"/><path class="cls-1" d="M1085.6294,75.5092V506.8308h127.9729V75.5092Z"/><path class="cls-1" d="M1483.1015,373.9188l-98.454-298.4069H1248.0567l164.898,431.3194H1545.867l52.9969-137.1025C1578.888,421.3979,1506.7558,424.0166,1483.1015,373.9188Z"/><path class="cls-2" d="M1712.6043,75.5119l-43.07,111.4136-70.6706,182.8033c-19.9759,51.6691-92.1081,54.2878-115.7624,4.19l98.4541-298.4069Z"/><path class="cls-1" d="M1985.169,75.5092H1853.4928L1669.53,506.8308h131.6759l25.9987-68.9112,35.27-93.5429,53.1535-140.8934,51.4462,140.8934,34.1664,93.5429L2026.4,506.8308h136.5868ZM1787.0511,344.3767V437.92h40.1538l35.27-93.5429Zm180.0233,0,34.1664,93.5429h35.0069V344.3767Z"/><path class="cls-1" d="M2278.3535,412.0786q-16.308-15.9936-42.15-15.9929-25.2507,0-41.5458,15.9929-16.3089,15.9936-16.2824,41.8352,0,25.8417,16.2824,41.8353,16.3082,15.9916,41.5458,15.9929,25.8411,0,42.15-15.9929,16.27-15.9936,16.3084-41.8353Q2294.6619,428.0723,2278.3535,412.0786Z"/><path class="cls-1" d="M2351.2558,75.5092V506.8308h127.9729V75.5092Z"/><path class="cls-1" d="M2979.7492,201.6445a213.2809,213.2809,0,0,0-49.2142-70.7487,225.1737,225.1737,0,0,0-74.452-46.7721Q2813.3033,67.5012,2762.25,67.5t-93.8328,16.6238q-42.7407,16.6226-74.4516,46.4567a210.2739,210.2739,0,0,0-49.2143,70.46q-17.53,40.5735-17.5429,89.2113,0,48.61,17.5429,89.814a211.6528,211.6528,0,0,0,49.2143,71.38q31.7106,30.1752,74.4516,47.0606,42.7806,16.938,93.8328,16.9393t93.8327-16.9393q42.7806-16.8994,74.452-47.0606a211.0234,211.0234,0,0,0,49.2142-71.6681q17.5689-41.5583,17.5426-89.5255Q2997.2918,242.2308,2979.7492,201.6445ZM2858.2366,337.6279a117.9572,117.9572,0,0,1-22.1383,37.5267,103.261,103.261,0,0,1-32.6174,24.9229,89.5817,89.5817,0,0,1-39.3662,8.9287,94.9109,94.9109,0,0,1-40.6266-8.9287,104.4829,104.4829,0,0,1-33.5362-24.9229,124.8894,124.8894,0,0,1-31.6713-84.3q0-25.2108,8.2987-46.4554a120.2827,120.2827,0,0,1,22.7687-37.2138,99.9815,99.9815,0,0,1,74.7667-33.2207,91.9076,91.9076,0,0,1,39.3662,8.6146,99.626,99.626,0,0,1,32.6174,24.6061,118.75,118.75,0,0,1,22.1383,37.2138,130.83,130.83,0,0,1,8.01,46.4554A133.3428,133.3428,0,0,1,2858.2366,337.6279Z"/><path class="cls-3" d="M445.619,314.4317,355.4881,510.1106a29.7883,29.7883,0,0,1-27.0568,17.327H170.25a29.7881,29.7881,0,0,1-27.0568-17.327L2.4394,204.5307a26.2571,26.2571,0,0,1,23.85-37.2428H162.3106a26.26,26.26,0,0,1,23.85,15.2711l63.18,137.1673C291.687,399.9709,407.66,396.8435,445.619,314.4317Z"/><path class="cls-4" d="M573.2978,37.2428,465.4314,271.422l-19.8124,43.01c-37.9591,82.4118-153.932,85.5392-196.2784,5.2946L389.58,15.2712A26.2569,26.2569,0,0,1,413.4293,0H549.448A26.2578,26.2578,0,0,1,573.2978,37.2428Z"/></g></g></svg>


