<svg xmlns="http://www.w3.org/2000/svg" xmlns:xlink="http://www.w3.org/1999/xlink" viewBox="0 0 575.7372 527.4376"><defs><style>.cls-1{fill:#fff;}.cls-2{fill:url(#linear-gradient);}</style><linearGradient id="linear-gradient" x1="387.8241" y1="226.0439" x2="87.9219" y2="842.1473" gradientUnits="userSpaceOnUse"><stop offset="0" stop-color="#fff"/><stop offset="1"/></linearGradient></defs><g id="Layer_2" data-name="Layer 2"><g id="Layer_1-2" data-name="Layer 1"><path class="cls-1" d="M445.619,314.4317,355.4881,510.1106a29.7883,29.7883,0,0,1-27.0568,17.327H170.25a29.7881,29.7881,0,0,1-27.0568-17.327L2.4394,204.5307a26.2571,26.2571,0,0,1,23.85-37.2428H162.3106a26.26,26.26,0,0,1,23.85,15.2711l63.18,137.1673C291.687,399.9709,407.66,396.8435,445.619,314.4317Z"/><path class="cls-2" d="M573.2978,37.2428,465.4314,271.422l-19.8124,43.01c-37.9591,82.4118-153.932,85.5392-196.2784,5.2946L389.58,15.2712A26.2569,26.2569,0,0,1,413.4293,0H549.448A26.2578,26.2578,0,0,1,573.2978,37.2428Z"/></g></g></svg>


