<svg xmlns="http://www.w3.org/2000/svg" xmlns:xlink="http://www.w3.org/1999/xlink" viewBox="0 0 5353.6729 987.6497"><defs><style>.cls-1{fill:#021228;}.cls-2{fill:url(#linear-gradient);}.cls-3{fill:url(#linear-gradient-2);}</style><linearGradient id="linear-gradient" x1="1527.5082" y1="643.9719" x2="2330.9819" y2="643.9719" gradientUnits="userSpaceOnUse"><stop offset="0" stop-color="#33effa"/><stop offset="1" stop-color="#258ffb"/></linearGradient><linearGradient id="linear-gradient-2" x1="2418.3016" y1="50.2622" x2="2089.9269" y2="681.1844" xlink:href="#linear-gradient"/></defs><g id="Layer_2" data-name="Layer 2"><g id="Layer_1-2" data-name="Layer 1"><path class="cls-1" d="M695.9916,17.6592H405.6669L0,968.656H290.3247l57.3235-151.9383L425.47,610.47,542.6651,299.8222,656.0965,610.47,731.37,816.7177l55.471,151.9383h301.1525ZM656.0965,610.47,731.37,816.7177h77.1846V610.47ZM259.115,816.7177h88.5332L425.47,610.47H259.115Z"/><path class="cls-1" d="M1157.1875,17.6592V968.656h282.16V17.6592Z"/><path class="cls-1" d="M3082.1977,610.4583l75.3293,206.2624h77.1942V610.4583Zm0,0,75.3293,206.2624h77.1942V610.4583Z"/><polygon class="cls-1" points="3514.163 968.644 3213.004 968.644 3157.527 816.721 3234.721 816.721 3234.721 610.458 3082.198 610.458 2968.777 299.816 2696.037 968.644 2405.689 968.644 2831.775 17.656 3122.091 17.656 3514.163 968.644"/><path class="cls-1" d="M3768.5261,759.7423q-35.9568-35.2634-92.9336-35.2619-55.6739,0-91.6019,35.2619-35.9589,35.2634-35.9,92.24,0,56.9768,35.9,92.24,35.9566,35.2591,91.6019,35.2619,56.9758,0,92.9336-35.2619,35.8717-35.2632,35.9574-92.24Q3804.4835,795.0056,3768.5261,759.7423Z"/><path class="cls-1" d="M3929.2643,17.6592V968.656h282.16V17.6592Z"/><path class="cls-1" d="M5314.9942,295.7679a470.25,470.25,0,0,0-108.51-155.99Q5136.5664,73.3356,5042.33,36.6529,4948.0071.0028,4835.4429,0,4722.88,0,4628.5564,36.6529q-94.2366,36.65-164.1543,102.43-69.83,65.8362-108.51,155.3537-38.6507,89.458-38.6793,196.697,0,107.1766,38.6793,198.0258,38.6508,90.9383,108.51,157.3808,69.9169,66.5318,164.1543,103.7614,94.3245,37.3457,206.8865,37.3484,112.5627,0,206.8866-37.3484,94.3247-37.2608,164.155-103.7614,69.831-66.4469,108.51-158.0169,38.7367-91.6295,38.6787-197.39Q5353.6729,385.2543,5314.9942,295.7679ZM5047.0779,595.59q-17.6316,47.5069-48.8116,82.7405-31.2684,35.2634-71.9163,54.9511a197.5117,197.5117,0,0,1-86.7962,19.6864,209.2636,209.2636,0,0,1-89.5754-19.6864,230.3681,230.3681,0,0,1-73.942-54.9511q-31.8748-35.2632-50.8381-82.74-19.0216-47.511-18.9923-103.128,0-55.5858,18.2975-102.4269,18.3261-46.8156,50.2012-82.0506a220.4425,220.4425,0,0,1,164.8491-73.2465,202.64,202.64,0,0,1,86.7962,18.9937q40.7352,19.0206,71.9163,54.2528,31.1793,35.2633,48.8116,82.0506,17.6318,46.8114,17.6607,102.4269Q5064.7386,548.137,5047.0779,595.59Z"/><path class="cls-2" d="M2330.9819,584.5956l-162.5105,352.819a53.71,53.71,0,0,1-48.7848,31.2414H1834.4773a53.7094,53.7094,0,0,1-48.7847-31.2414l-253.7861-550.976c-14.4489-31.3706,8.4657-67.1508,43.0024-67.1508h245.2536a47.3477,47.3477,0,0,1,43.0022,27.5346l113.9173,247.32C2053.4347,738.8272,2262.54,733.1882,2330.9819,584.5956Z"/><path class="cls-3" d="M2561.1934,84.81,2366.7048,507.0469l-35.7229,77.5487c-68.4422,148.5926-277.5472,154.2316-353.9,9.5465L2229.94,45.1939a47.3426,47.3426,0,0,1,43.0024-27.5347H2518.191C2552.7277,17.6592,2575.6423,53.4443,2561.1934,84.81Z"/></g></g></svg>