<svg xmlns="http://www.w3.org/2000/svg" xmlns:xlink="http://www.w3.org/1999/xlink" viewBox="0 0 2177.9731 2177.9731"><defs><style>.cls-1{fill:#fff;}.cls-2{fill:url(#linear-gradient);}.cls-3{fill:url(#linear-gradient-2);}</style><linearGradient id="linear-gradient" x1="370.6925" y1="1297.6962" x2="1482.6077" y2="1297.6962" gradientUnits="userSpaceOnUse"><stop offset="0" stop-color="#33effa"/><stop offset="1" stop-color="#258ffb"/></linearGradient><linearGradient id="linear-gradient-2" x1="1603.4481" y1="476.0702" x2="1149.0152" y2="1349.1941" xlink:href="#linear-gradient"/></defs><g id="Layer_2" data-name="Layer 2"><g id="Layer_1-2" data-name="Layer 1"><rect class="cls-1" width="2177.9731" height="2177.9731"/><path class="cls-2" d="M1482.6077,1215.5262l-224.8959,488.261a74.3285,74.3285,0,0,1-67.5125,43.2345H795.5024a74.3276,74.3276,0,0,1-67.5125-43.2345L376.7792,941.3c-19.9956-43.4133,11.7155-92.929,59.51-92.929H775.6923a65.5237,65.5237,0,0,1,59.51,38.1048l157.6484,342.262C1098.5143,1428.965,1387.8915,1421.1613,1482.6077,1215.5262Z"/><path class="cls-3" d="M1801.1939,523.88l-269.15,584.3273-49.4363,107.3185c-94.7162,205.6351-384.0934,213.4388-489.7569,13.2113l349.9264-759.6812a65.5167,65.5167,0,0,1,59.51-38.1049h339.396C1789.4784,430.9514,1821.19,480.4739,1801.1939,523.88Z"/></g></g></svg>