<svg xmlns="http://www.w3.org/2000/svg" xmlns:xlink="http://www.w3.org/1999/xlink" viewBox="0 0 2177.9731 2177.9731"><defs><style>.cls-1{fill:#fff;}.cls-2{fill:#021228;}.cls-3{fill:url(#linear-gradient);}.cls-4{fill:url(#linear-gradient-2);}.cls-5{fill:url(#linear-gradient-3);}</style><linearGradient id="linear-gradient" x1="1158.3939" y1="960.8359" x2="1151.7134" y2="1187.9716" gradientUnits="userSpaceOnUse"><stop offset="0" stop-color="#33effa"/><stop offset="1" stop-color="#258ffb"/></linearGradient><linearGradient id="linear-gradient-2" x1="85.8399" y1="1144.9752" x2="384.1233" y2="1144.9752" xlink:href="#linear-gradient"/><linearGradient id="linear-gradient-3" x1="416.5401" y1="924.5651" x2="294.6335" y2="1158.7901" xlink:href="#linear-gradient"/></defs><g id="Layer_2" data-name="Layer 2"><g id="Layer_1-2" data-name="Layer 1"><rect class="cls-1" width="2177.9731" height="2177.9731"/><path class="cls-2" d="M672.5118,963.005h-88.14L461.2156,1251.7181h88.14l17.4029-46.1269,23.6258-62.6147,35.5794-94.31,34.4366,94.31,22.8523,62.6147,16.8405,46.1269H791.52ZM660.4,1142.9765l22.8523,62.6147h23.4325v-62.6147Zm-120.52,62.6147h26.8778l23.6258-62.6147H539.88Z"/><path class="cls-2" d="M812.5263,963.005v288.7131h85.661V963.005Z"/><path class="cls-2" d="M1078.5816,1162.751,1012.68,963.0067H921.25l110.3776,288.7118h88.9673l35.4745-91.7721C1142.6981,1194.532,1094.4151,1196.2849,1078.5816,1162.751Z"/><path class="cls-3" d="M1232.2036,963.0067l-28.83,74.5769-47.3047,122.3628c-13.3713,34.5856-61.6543,36.3385-77.4878,2.8046l65.9021-199.7443Z"/><path class="cls-2" d="M1414.65,963.005h-88.14l-123.1388,288.7131h88.14l17.4028-46.1269,23.6085-62.6147,35.5793-94.31,34.4364,94.31,22.87,62.6147,16.8406,46.1269h91.4269ZM1282.036,1142.9765v62.6147h26.8777l23.6085-62.6147Zm120.5019,0,22.87,62.6147H1448.84v-62.6147Z"/><path class="cls-2" d="M1610.8984,1188.294q-10.9161-10.7057-28.2137-10.7052-16.902,0-27.8094,10.7052-10.9167,10.7055-10.8989,28.0032,0,17.2976,10.8989,28.0032,10.9161,10.7043,27.8094,10.7051,17.2973,0,28.2137-10.7051,10.89-10.7057,10.9163-28.0032Q1621.8147,1199,1610.8984,1188.294Z"/><path class="cls-2" d="M1659.6969,963.005v288.7131h85.6611V963.005Z"/><path class="cls-2" d="M2080.3908,1047.436a142.765,142.765,0,0,0-32.9425-47.357,150.7247,150.7247,0,0,0-49.8358-31.3077q-28.6354-11.1267-62.8087-11.1275t-62.8087,11.1275a152.4013,152.4013,0,0,0-49.8356,31.0966,140.7507,140.7507,0,0,0-32.9425,47.1638q-11.7341,27.1586-11.7427,59.7153,0,32.5377,11.7427,60.1186a141.6728,141.6728,0,0,0,32.9425,47.7793,153.1068,153.1068,0,0,0,49.8356,31.5009q28.6359,11.3378,62.8087,11.3386t62.8087-11.3386a152.9243,152.9243,0,0,0,49.8358-31.5009,141.2541,141.2541,0,0,0,32.9425-47.9724,152.2708,152.2708,0,0,0,11.7424-59.9255Q2092.1332,1074.6032,2080.3908,1047.436Zm-81.3368,91.023a78.9546,78.9546,0,0,1-14.8187,25.1192,69.1185,69.1185,0,0,1-21.833,16.6826,59.9629,59.9629,0,0,1-26.3505,5.9766,63.53,63.53,0,0,1-27.1942-5.9766,69.9364,69.9364,0,0,1-22.4481-16.6826,83.5972,83.5972,0,0,1-21.2-56.4278,84.5974,84.5974,0,0,1,5.5549-31.0958,80.5131,80.5131,0,0,1,15.2406-24.91,66.9245,66.9245,0,0,1,50.0466-22.2369,61.52,61.52,0,0,1,26.3505,5.7663,66.6851,66.6851,0,0,1,21.833,16.4706,79.4843,79.4843,0,0,1,14.8187,24.91,87.5723,87.5723,0,0,1,5.3616,31.0958A89.2536,89.2536,0,0,1,1999.054,1138.459Z"/><path class="cls-4" d="M384.1233,1122.9322l-60.3308,130.9814a19.94,19.94,0,0,1-18.111,11.5981H199.8a19.9394,19.9394,0,0,1-18.111-11.5981L87.4727,1049.368a17.5758,17.5758,0,0,1,15.9644-24.9293h91.0484a17.5776,17.5776,0,0,1,15.9643,10.2221l42.2909,91.8155C281.0861,1180.19,358.7147,1178.0961,384.1233,1122.9322Z"/><path class="cls-5" d="M469.5875,937.3907l-72.2024,156.7522-13.2618,28.7893c-25.4086,55.1639-103.0372,57.2573-131.3826,3.5441l93.8715-203.7928a17.5757,17.5757,0,0,1,15.9644-10.222h91.0466A17.5761,17.5761,0,0,1,469.5875,937.3907Z"/></g></g></svg>