<svg xmlns="http://www.w3.org/2000/svg" xmlns:xlink="http://www.w3.org/1999/xlink" viewBox="0 0 1817.6413 1817.6413"><defs><style>.cls-1{fill:#021228;}.cls-2{fill:#fff;}.cls-3{fill:url(#linear-gradient);}.cls-4{fill:url(#linear-gradient-2);}</style><linearGradient id="linear-gradient" x1="608.1836" y1="948.0956" x2="818.3533" y2="948.0956" gradientUnits="userSpaceOnUse"><stop offset="0" stop-color="#33effa"/><stop offset="1" stop-color="#258ffb"/></linearGradient><linearGradient id="linear-gradient-2" x1="841.1941" y1="792.7952" x2="755.299" y2="957.8295" xlink:href="#linear-gradient"/></defs><g id="Layer_2" data-name="Layer 2"><g id="Layer_1-2" data-name="Layer 1"><rect class="cls-1" width="1817.6413" height="1817.6413"/><path class="cls-2" d="M390.6786,784.267h-75.942L208.6237,1033.0252h75.9421L299.56,993.2818l20.3563-53.9495,30.6555-81.2581,29.671,81.2581,19.69,53.9495,14.51,39.7434H493.217ZM380.243,939.3323l19.69,53.9495h20.19V939.3323ZM276.402,993.2818H299.56l20.3563-53.9495H276.402Z"/><path class="cls-2" d="M511.3165,784.267v248.7582h73.8064V784.267Z"/><path class="cls-2" d="M1014.8536,939.3292l19.7043,53.9534H1054.75V939.3292Zm0,0,19.7043,53.9534H1054.75V939.3292Z"/><polygon class="cls-2" points="1127.846 1033.022 1049.069 1033.022 1034.558 993.283 1054.75 993.283 1054.75 939.329 1014.854 939.329 985.185 858.073 913.843 1033.022 837.895 1033.022 949.349 784.266 1025.289 784.266 1127.846 1033.022"/><path class="cls-2" d="M1194.3808,978.3784q-9.4054-9.2241-24.3092-9.2237-14.563,0-23.9609,9.2237-9.4061,9.2239-9.3907,24.1278,0,14.9038,9.3907,24.1278,9.4055,9.2231,23.9609,9.2237,14.9034,0,24.3092-9.2237,9.3832-9.224,9.4056-24.1278Q1203.7864,987.6023,1194.3808,978.3784Z"/><path class="cls-2" d="M1236.4261,784.267v248.7582h73.8064V784.267Z"/><path class="cls-2" d="M1598.9,857.0137a123.0054,123.0054,0,0,0-28.3836-40.8033,129.8656,129.8656,0,0,0-42.939-26.9751q-24.6726-9.5868-54.1167-9.5875t-54.1166,9.5875a131.3118,131.3118,0,0,0-42.9388,26.7932,121.2731,121.2731,0,0,0-28.3836,40.6368q-10.11,23.4-10.1176,51.4513a130.9468,130.9468,0,0,0,10.1176,51.7989,122.0679,122.0679,0,0,0,28.3836,41.1671,131.9216,131.9216,0,0,0,42.9388,27.1415q24.673,9.7688,54.1166,9.7694t54.1167-9.7694a131.7624,131.7624,0,0,0,42.939-27.1415A121.7042,121.7042,0,0,0,1598.9,959.7491a131.1971,131.1971,0,0,0,10.1174-51.6325Q1609.0176,880.4212,1598.9,857.0137ZM1528.82,935.44a68.03,68.03,0,0,1-12.7679,21.643,59.5536,59.5536,0,0,1-18.8116,14.3739,51.6652,51.6652,0,0,1-22.7038,5.1495,54.7393,54.7393,0,0,1-23.4309-5.1495,60.2581,60.2581,0,0,1-19.3414-14.3739,72.0275,72.0275,0,0,1-18.266-48.6188,72.8888,72.8888,0,0,1,4.7862-26.7924,69.3716,69.3716,0,0,1,13.1314-21.4625,57.6625,57.6625,0,0,1,43.1207-19.16,53.0063,53.0063,0,0,1,22.7038,4.9683,57.457,57.457,0,0,1,18.8116,14.1913,68.4855,68.4855,0,0,1,12.7679,21.4625,75.4535,75.4535,0,0,1,4.62,26.7924A76.9025,76.9025,0,0,1,1528.82,935.44Z"/><path class="cls-3" d="M818.3533,932.5641l-42.5089,92.2891a14.0491,14.0491,0,0,1-12.7609,8.172H688.48a14.0492,14.0492,0,0,1-12.761-8.172L609.3341,880.731a12.3839,12.3839,0,0,1,11.2484-17.5651h64.1526a12.3849,12.3849,0,0,1,11.2483,7.2024l29.7981,64.693C745.7535,972.9075,800.4505,971.4324,818.3533,932.5641Z"/><path class="cls-4" d="M878.5712,801.8321,827.6976,912.2792l-9.3443,20.2849c-17.9028,38.8683-72.6,40.3434-92.5718,2.4972L791.9231,791.47a12.3837,12.3837,0,0,1,11.2484-7.2025h64.1513A12.3841,12.3841,0,0,1,878.5712,801.8321Z"/></g></g></svg>