<svg xmlns="http://www.w3.org/2000/svg" xmlns:xlink="http://www.w3.org/1999/xlink" viewBox="0 0 1787.6743 1787.6743"><defs><style>.cls-1{fill:#fff;}.cls-2{fill:url(#linear-gradient);}.cls-3{fill:url(#linear-gradient-2);}</style><linearGradient id="linear-gradient" x1="374.7954" y1="1044.6514" x2="1178.2691" y2="1044.6514" gradientUnits="userSpaceOnUse"><stop offset="0" stop-color="#33effa"/><stop offset="1" stop-color="#258ffb"/></linearGradient><linearGradient id="linear-gradient-2" x1="1265.5888" y1="450.9417" x2="937.214" y2="1081.864" xlink:href="#linear-gradient"/></defs><g id="Layer_2" data-name="Layer 2"><g id="Layer_1-2" data-name="Layer 1"><rect class="cls-1" width="1787.6743" height="1787.6743"/><path class="cls-2" d="M1178.2691,985.2751l-162.5106,352.8191a53.71,53.71,0,0,1-48.7847,31.2413H681.7645a53.71,53.71,0,0,1-48.7848-31.2413L379.1937,787.1181c-14.4489-31.3706,8.4657-67.1508,43.0024-67.1508H667.45a47.3476,47.3476,0,0,1,43.0022,27.5347l113.9172,247.32C900.7219,1139.5067,1109.8269,1133.8678,1178.2691,985.2751Z"/><path class="cls-3" d="M1408.4806,485.49,1213.9919,907.7264l-35.7228,77.5487c-68.4422,148.5927-277.5472,154.2316-353.9,9.5465l252.858-548.9481a47.3423,47.3423,0,0,1,43.0024-27.5347h245.2487C1400.0149,418.3388,1422.93,454.1238,1408.4806,485.49Z"/></g></g></svg>