<svg xmlns="http://www.w3.org/2000/svg" xmlns:xlink="http://www.w3.org/1999/xlink" viewBox="0 0 1666.0569 1526.2885"><defs><style>.cls-1{fill:#fff;}.cls-2{fill:url(#linear-gradient);}</style><linearGradient id="linear-gradient" x1="1174.2351" y1="544.4325" x2="-1203.186" y2="5212.5076" gradientUnits="userSpaceOnUse"><stop offset="0" stop-color="#fff"/><stop offset="1" stop-color="#020202"/></linearGradient></defs><g id="Layer_2" data-name="Layer 2"><g id="Layer_1-2" data-name="Layer 1"><path class="cls-1" d="M1289.5234,909.8963l-260.819,566.2518a86.201,86.201,0,0,1-78.2964,50.14H492.6656a86.2,86.2,0,0,1-78.2964-50.14L7.059,591.8671c-23.19-50.3478,13.5868-107.7727,69.016-107.7727H469.6912a75.99,75.99,0,0,1,69.0157,44.1913l182.83,396.9321C844.0781,1157.428,1179.6781,1148.3779,1289.5234,909.8963Z"/><path class="cls-2" d="M1658.998,107.7726l-312.1418,677.663-57.3328,124.4607c-109.8453,238.4816-445.4453,247.5317-567.9866,15.3215L1127.3575,44.1915A75.9816,75.9816,0,0,1,1196.3736,0h393.6083C1645.4111,0,1682.1875,57.4328,1658.998,107.7726Z"/></g></g></svg>